<svg id="visual" viewBox="0 0 900 600" width="900" height="600" xmlns="http://www.w3.org/2000/svg" xmlns:xlink="http://www.w3.org/1999/xlink" version="1.1"><rect x="0" y="0" width="900" height="600" fill="#002233"></rect><path d="M0 571L16.7 568.2C33.3 565.3 66.7 559.7 100 549.3C133.3 539 166.7 524 200 525.5C233.3 527 266.7 545 300 555.2C333.3 565.3 366.7 567.7 400 563.2C433.3 558.7 466.7 547.3 500 534.8C533.3 522.3 566.7 508.7 600 497.3C633.3 486 666.7 477 700 487.2C733.3 497.3 766.7 526.7 800 534.5C833.3 542.3 866.7 528.7 883.3 521.8L900 515L900 601L883.3 601C866.7 601 833.3 601 800 601C766.7 601 733.3 601 700 601C666.7 601 633.3 601 600 601C566.7 601 533.3 601 500 601C466.7 601 433.3 601 400 601C366.7 601 333.3 601 300 601C266.7 601 233.3 601 200 601C166.7 601 133.3 601 100 601C66.7 601 33.3 601 16.7 601L0 601Z" fill="#0066FF" stroke-linecap="round" stroke-linejoin="miter"></path></svg>